<?xml version="1.0" encoding="utf-8"?><svg viewBox="0 0 127 127" xmlns="http://www.w3.org/2000/svg" xmlns:xlink="http://www.w3.org/1999/xlink"><style>:root>svg{display:none}:root>svg:target{display:block}</style><svg viewBox="0 0 22 9" id="arrow-right-black" xmlns="http://www.w3.org/2000/svg"><path d="M.296 5.472L.288 5.47h16.956l-.1 2.859a.29.29 0 000 .41l.172.173a.288.288 0 00.407 0L21.917 4.7A.288.288 0 0022 4.496c0-.077-.03-.15-.084-.204L17.724.079a.29.29 0 00-.408 0l-.172.174a.285.285 0 000 .403l.113 2.865H.292A.299.299 0 000 3.817v1.37c0 .16.137.285.296.285z"/></svg><svg viewBox="0 0 22 9" id="arrow-right-white" xmlns="http://www.w3.org/2000/svg"><path class="bcls-1" fill-rule="evenodd" d="M.3 5.472h16.948l-.1 2.857a.292.292 0 000 .41l.172.172a.28.28 0 00.2.086.285.285 0 00.2-.084l4.193-4.211A.292.292 0 0022 4.5a.283.283 0 00-.084-.2L17.723.087a.289.289 0 00-.407 0l-.172.173a.287.287 0 00-.084.2.278.278 0 00.084.2l.113 2.865H.292A.3.3 0 000 3.82v1.37a.292.292 0 00.3.282z"/></svg><svg viewBox="0 0 22 9" id="arrow-right-white1" xmlns="http://www.w3.org/2000/svg"><path fill="#fff" d="M.296 5.472H.288h16.956l-.1 2.857a.287.287 0 00-.084.205c0 .077.03.15.084.205l.172.172a.286.286 0 00.407.002l4.193-4.211a.289.289 0 000-.41L17.723.08a.29.29 0 00-.407 0l-.172.173a.288.288 0 000 .405l.113 2.865H.292A.298.298 0 000 3.818v1.37c0 .159.137.284.296.284z"/></svg><svg viewBox="0 0 18.94 16.969" id="basket" xmlns="http://www.w3.org/2000/svg"><defs><style>.dcls-1{fill:#243f4d;fill-rule:evenodd}</style></defs><path class="dcls-1" d="M5.53 16.978a2.074 2.074 0 110-4.147 2.056 2.056 0 011.46.6 2.03 2.03 0 01.61 1.466 2.071 2.071 0 01-2.07 2.081zm0-2.963a.889.889 0 10.34 1.71.9.9 0 00.55-.824.92.92 0 00-.26-.629.9.9 0 00-.63-.257zm8.39 2.963a2.045 2.045 0 01-1.46-.607 2.068 2.068 0 011.46-3.54 1.953 1.953 0 011.47.6 2.085 2.085 0 01-.67 3.383 2.093 2.093 0 01-.8.164zm0-2.963a.978.978 0 00-.82.548.887.887 0 001.16 1.161.891.891 0 00.29-1.452.9.9 0 00-.63-.257zm-11.27.164a.562.562 0 01-.25-.056.59.59 0 01-.29-.787 3.686 3.686 0 013.05-2.151L4.11 5.794a.591.591 0 111.16-.228l1.09 5.578h9.43l1.8-6.771H4.29A4.346 4.346 0 01.01.68.587.587 0 01.5.007a.6.6 0 01.68.5 3.159 3.159 0 003.11 2.682h14.07a.582.582 0 01.47.232.594.594 0 01.11.513l-2.13 7.956a.59.59 0 01-.57.44H5.88a.03.03 0 00-.02 0 2.66 2.66 0 00-2.68 1.51.586.586 0 01-.53.338z"/></svg><svg viewBox="0 0 8 10" id="calendar" xmlns="http://www.w3.org/2000/svg"><path d="M2.645 5.625H1.93c-.117 0-.215-.105-.215-.234v-.782c0-.129.097-.234.215-.234h.715c.117 0 .21.105.21.234v.782c0 .129-.093.234-.21.234zm1.925-.234v-.782c0-.129-.093-.234-.215-.234h-.71c-.122 0-.215.105-.215.234v.782c0 .129.093.234.215.234h.71c.122 0 .215-.105.215-.234zm1.715 0v-.782c0-.129-.098-.234-.215-.234h-.715c-.117 0-.21.105-.21.234v.782c0 .129.093.234.21.234h.715c.117 0 .215-.105.215-.234zM4.57 7.266v-.782c0-.129-.093-.234-.215-.234h-.71c-.122 0-.215.105-.215.234v.782c0 .129.093.234.215.234h.71c.122 0 .215-.105.215-.234zm-1.715 0v-.782c0-.129-.093-.234-.21-.234H1.93c-.117 0-.215.105-.215.234v.782c0 .129.097.234.215.234h.715c.117 0 .21-.105.21-.234zm3.43 0v-.782c0-.129-.098-.234-.215-.234h-.715c-.117 0-.21.105-.21.234v.782c0 .129.093.234.21.234h.715c.117 0 .215-.105.215-.234zM8 2.187v6.876c0 .515-.383.937-.855.937H.855C.383 10 0 9.578 0 9.062V2.189c0-.516.383-.938.855-.938h.86V.234c0-.129.097-.234.215-.234h.715c.117 0 .21.105.21.234V1.25h2.29V.234c0-.129.093-.234.21-.234h.715c.117 0 .215.105.215.234V1.25h.86c.472 0 .855.422.855.938zm-.855 6.758v-5.82H.855v5.82c0 .063.051.117.11.117h6.07c.059 0 .11-.054.11-.117zm0 0"/></svg><svg viewBox="0 0 55 37" id="delivery" xmlns="http://www.w3.org/2000/svg"><path fill="#a3bbc8" d="M10.602 6.12a.786.786 0 01-.786.786H3.69a.786.786 0 010-1.572h6.126c.434 0 .786.352.786.785zm.523 11.006a.785.785 0 01-.785.786H4.738a.785.785 0 010-1.572h5.602c.434 0 .785.352.785.786zm-2.094-4.717a.786.786 0 01-.785.786h-6.65a.786.786 0 010-1.572h6.65c.433 0 .785.352.785.786zm0 11.006a.786.786 0 01-.785.787H7.6a.786.786 0 010-1.573h.645c.433 0 .785.352.785.786zm-3.262 0a.786.786 0 01-.786.787H1.596a.786.786 0 010-1.573h3.387c.434 0 .786.352.786.786zm44.153-12.56V24.94a.786.786 0 01-.785.787h-2.782a4.983 4.983 0 01-4.912 4.192 4.983 4.983 0 01-4.912-4.192H25.28a4.983 4.983 0 01-4.911 4.192 4.983 4.983 0 01-4.912-4.192h-2.42a.786.786 0 01-.784-.787V1.354c0-.434.351-.786.785-.786h6.046a.786.786 0 010 1.572h-5.26v22.014h1.633a4.983 4.983 0 014.912-4.193 4.983 4.983 0 014.911 4.193h8.336V23.03a.785.785 0 111.57 0v1.125h1.346a4.983 4.983 0 014.912-4.193 4.983 4.983 0 014.912 4.193h1.997v-13.3c0-3.591-2.92-6.513-6.509-6.513h-6.657V19.36a.786.786 0 11-1.571 0V2.14h-11.39a.786.786 0 010-1.572H34.4c.434 0 .786.352.786.786v1.415h6.657c4.455 0 8.08 3.628 8.08 8.086zM23.772 24.94a3.409 3.409 0 00-3.404-3.406 3.409 3.409 0 00-3.404 3.406 3.409 3.409 0 003.404 3.407 3.409 3.409 0 003.403-3.407zm21.075 0a3.409 3.409 0 00-3.404-3.406 3.408 3.408 0 00-3.403 3.406v.001a3.41 3.41 0 003.403 3.406 3.409 3.409 0 003.404-3.407zm1.934-14.085v3.235a.786.786 0 01-.786.787h-8.453a.786.786 0 01-.785-.787V6.7c0-.434.351-.786.785-.786h4.301a4.945 4.945 0 014.938 4.941zm-1.571 0a3.372 3.372 0 00-3.367-3.368h-3.515v5.817h6.882zM22.392 24.94a2.028 2.028 0 01-2.024 2.027 2.028 2.028 0 01-2.025-2.027c0-1.117.908-2.027 2.025-2.027 1.116 0 2.024.91 2.024 2.027zm-1.57 0a.455.455 0 10-.91 0 .455.455 0 00.91 0zm22.646 0a2.028 2.028 0 01-2.025 2.027 2.028 2.028 0 01-2.025-2.027 2.03 2.03 0 012.025-2.027c1.117 0 2.025.91 2.025 2.027zm-1.57 0a.455.455 0 10-.91 0 .455.455 0 00.91 0zm4.883-7.128v1.992a.786.786 0 11-1.571 0v-1.992a.786.786 0 111.57 0z"/><path fill="#a3bbc8" d="M44.75 17.406c5.42 0 9.812 4.386 9.812 9.797 0 5.41-4.393 9.797-9.812 9.797-5.42 0-9.813-4.386-9.813-9.797 0-5.41 4.394-9.797 9.813-9.797z" opacity=".34"/></svg><svg viewBox="0 0 17.87 15.531" id="heart" xmlns="http://www.w3.org/2000/svg"><defs><style>.gcls-1{fill:#243f4d;fill-rule:evenodd}</style></defs><path class="gcls-1" d="M8.94 15.526a.731.731 0 01-.28-.056C8.31 15.32.01 11.721.01 4.71A28.181 28.181 0 0013.06.003a4.817 4.817 0 014.81 4.684c0 7.034-8.29 10.634-8.65 10.783a.7.7 0 01-.28.056zM4.83 1.388a3.427 3.427 0 00-3.41 3.346c0 5.407 6.13 8.662 7.52 9.334 1.4-.672 7.52-3.93 7.52-9.358a3.406 3.406 0 00-6.81.024.709.709 0 01-.71.669.694.694 0 01-.7-.669 3.427 3.427 0 00-3.41-3.347z"/></svg><svg viewBox="0 0 1 32" id="line-nav" xmlns="http://www.w3.org/2000/svg"><path fill="#fff" d="M0 0h1v32H0z" opacity=".4"/></svg><svg viewBox="0 0 54 53" id="payment" xmlns="http://www.w3.org/2000/svg"><path fill="#a3bbc8" d="M47.261 32.151v8.265a3.84 3.84 0 01-3.834 3.838H4.092a3.84 3.84 0 01-3.834-3.837v-23.62a3.841 3.841 0 013.834-3.839H29.22a.836.836 0 010 1.673H4.092a2.167 2.167 0 00-2.163 2.166v2.884h9.869a.836.836 0 010 1.673H1.929v5.47H29.22a.837.837 0 010 1.673H1.93v11.92c0 1.193.97 2.165 2.162 2.165h39.335a2.167 2.167 0 002.162-2.165V32.15a.836.836 0 111.672 0zM30.056 20.518a.836.836 0 01-.836.837H15.004a.836.836 0 010-1.674H29.22c.462 0 .836.375.836.837zm-9.238 11.555a.836.836 0 01-.836.837H5.71a.836.836 0 010-1.674h14.27c.462 0 .837.375.837.837zm-6.087 3.991a.836.836 0 01-.836.837H5.711a.836.836 0 010-1.673h8.185c.461 0 .835.375.835.836zm32.967-15.28v-4.773c0-.755-.614-1.37-1.37-1.37H34.434c-.755 0-1.37.615-1.37 1.37V26.76c0 .756.615 1.37 1.37 1.37H46.33c.755 0 1.37-.614 1.37-1.37v-3.186a.836.836 0 111.671 0v3.186a3.047 3.047 0 01-3.041 3.044H34.434a3.046 3.046 0 01-3.04-3.044V16.012a3.049 3.049 0 012.392-2.975V7.021c0-3.64 2.959-6.603 6.595-6.603 3.637 0 6.595 2.962 6.595 6.603v6.016a3.048 3.048 0 012.394 2.974v4.773a.836.836 0 11-1.672 0zm-2.394-7.817V7.021a4.931 4.931 0 00-4.923-4.929 4.931 4.931 0 00-4.923 4.929v5.946zm-1.83 7.417a3.099 3.099 0 01-2.257 2.98v2.04a.835.835 0 11-1.671 0v-2.04a3.099 3.099 0 01-2.257-2.98 3.097 3.097 0 013.093-3.095 3.097 3.097 0 013.092 3.095zm-1.672 0c0-.783-.637-1.422-1.42-1.422a1.423 1.423 0 000 2.844c.783 0 1.42-.637 1.42-1.422z"/><path fill="#a3bbc8" d="M44 33.062c5.42 0 9.812 4.386 9.812 9.797 0 5.41-4.393 9.797-9.812 9.797-5.42 0-9.813-4.386-9.813-9.797 0-5.41 4.394-9.797 9.813-9.797z" opacity=".34"/></svg><svg viewBox="0 0 127 127" id="play" xmlns="http://www.w3.org/2000/svg"><path fill="#a3bbc8" d="M63.5 0C98.57 0 127 28.43 127 63.5S98.57 127 63.5 127 0 98.57 0 63.5 28.43 0 63.5 0z" opacity=".4"/><path fill="#a3bbc8" d="M63 14c27.062 0 49 21.938 49 49s-21.938 49-49 49-49-21.938-49-49 21.938-49 49-49z"/><path fill="#fff" d="M73.684 64.74L57.64 74.536c-.5.306-1.08.46-1.663.46-.48 0-.96-.105-1.399-.316-.972-.47-1.579-1.387-1.579-2.385V52.7c0-.999.607-1.917 1.58-2.386a3.242 3.242 0 013.061.143l16.044 9.798c.822.502 1.315 1.343 1.315 2.241 0 .9-.493 1.741-1.315 2.244z"/></svg><svg viewBox="0 0 22 25" id="play-icon" xmlns="http://www.w3.org/2000/svg"><path d="M20.684 14.74L4.64 24.536c-.5.306-1.08.46-1.663.46-.48 0-.96-.105-1.399-.316C.606 24.21 0 23.293 0 22.295V2.7C0 1.701.606.783 1.58.314a3.242 3.242 0 013.06.143l16.045 9.798c.822.502 1.315 1.343 1.315 2.241 0 .9-.493 1.741-1.315 2.244z"/></svg><svg viewBox="0 0 22 20" id="products-icon-basket" xmlns="http://www.w3.org/2000/svg"><path d="M0 .814c0-.449.366-.816.814-.816h2.943c.367 0 .692.245.787.598l3.323 12.038h9.062l3.011-6.929H9.902a.817.817 0 010-1.631h11.286a.81.81 0 01.678.366c.15.233.177.517.068.776l-3.717 8.56a.815.815 0 01-.746.488H7.257a.814.814 0 01-.787-.597L3.147 1.629H.814A.817.817 0 010 .814zM4.639 18.15c0-1.019.827-1.847 1.845-1.847a1.848 1.848 0 010 3.696 1.848 1.848 0 01-1.845-1.849zm11.544.123a1.85 1.85 0 011.709-1.97 1.85 1.85 0 011.52 3.057c-.327.38-.774.598-1.263.639h-.135a1.85 1.85 0 01-1.831-1.726z"/></svg><svg viewBox="0 0 22 18" id="products-icon-heart" xmlns="http://www.w3.org/2000/svg"><path d="M20.72 10.158c-.87 1.322-3.1 3.387-4.746 4.754-1.696 1.407-3.933 3.087-4.965 3.087-1.015 0-3.26-1.682-4.965-3.093-1.66-1.374-3.902-3.44-4.763-4.748C.32 8.7-.072 7.361.01 5.82a6.21 6.21 0 011.848-4.1C2.985.61 4.455-.001 5.999-.001c2.461 0 4.133 1.904 4.937 2.82l.083.094.156-.17C12.055 1.785 13.691 0 16.002 0c1.543 0 3.014.61 4.14 1.72a6.21 6.21 0 011.848 4.1c.105 1.972-.624 3.354-1.27 4.338zm-.052-4.267c-.135-2.519-2.228-4.57-4.666-4.57-1.729 0-3.057 1.45-3.851 2.317-.479.523-.742.81-1.15.81-.397 0-.632-.268-1.06-.756-.727-.828-2.08-2.37-3.943-2.37-2.438 0-4.531 2.05-4.666 4.57-.066 1.24.259 2.331 1.054 3.537.624.948 2.407 2.716 4.437 4.402 2.418 2.01 3.846 2.808 4.188 2.843.341-.031 1.766-.822 4.172-2.826 2.019-1.682 3.799-3.457 4.43-4.418.807-1.226 1.122-2.285 1.055-3.539z"/></svg><svg class="nproduct-search-icon" viewBox="0 0 20 20" id="products-icon-search" xmlns="http://www.w3.org/2000/svg"><path d="M19.45 19.448a1.874 1.874 0 01-2.65 0l-4.59-4.588a8.812 8.812 0 002.652-2.651l4.588 4.59c.733.731.733 1.92 0 2.65zM7.5 14.998a7.5 7.5 0 110-15 7.5 7.5 0 010 15zm5.625-7.5A5.632 5.632 0 007.5 1.874 5.632 5.632 0 001.875 7.5 5.63 5.63 0 007.5 13.123 5.63 5.63 0 0013.125 7.5zM7.5 3.124v1.251A3.128 3.128 0 004.375 7.5h-1.25A4.38 4.38 0 017.5 3.123z"/></svg><svg viewBox="0 0 7 12" id="right" xmlns="http://www.w3.org/2000/svg"><path fill="#262626" d="M1.333 11.687a.55.55 0 01-.41-.183.6.6 0 01.021-.831l4.547-4.475L.944 1.724a.596.596 0 01-.177-.427c0-.145.052-.29.155-.404a.551.551 0 01.8-.023L6.7 5.768l.014.014a.563.563 0 01.113.169h.001a.61.61 0 01.052.244v.003a.62.62 0 01-.053.25v.001a.602.602 0 01-.112.165l-.015.014-4.977 4.899a.55.55 0 01-.39.16z"/></svg><svg viewBox="0 0 15.28 15.281" id="search" xmlns="http://www.w3.org/2000/svg"><path class="pcls-1" d="M2.98 6.076a.617.617 0 01.75.485 2.583 2.583 0 00.78 1.489A3.036 3.036 0 006 8.827a.636.636 0 01.49.743.649.649 0 01-.72.515 4.21 4.21 0 01-2.14-1.13A4.164 4.164 0 012.5 6.819a.6.6 0 01.48-.743zM6.26 0a6.267 6.267 0 016.28 6.257 6.136 6.136 0 01-.57 2.6l2.34 2.036c1.7 1.746.74 3.266.29 3.717-.42.454-1.99 1.414-3.73-.292l-2.06-2.35A6.261 6.261 0 116.26 0zm5.55 13.517a1.352 1.352 0 001.88.226 1.313 1.313 0 00-.23-1.874l-2.16-1.88a6.236 6.236 0 01-1.37 1.34zm-5.55-2.312a4.948 4.948 0 10-4.97-4.948A4.963 4.963 0 006.26 11.2z" fill="#243f4d" fill-rule="evenodd"/></svg><svg viewBox="0 0 16 16" id="search-icon" xmlns="http://www.w3.org/2000/svg"><path d="M3.702 6.076c.356-.065.68.13.746.484a2.65 2.65 0 00.78 1.49c.42.388.941.677 1.493.776.325.066.552.39.487.743a.643.643 0 01-.714.516 4.2 4.2 0 01-2.143-1.13 4.164 4.164 0 01-1.136-2.137c-.065-.354.128-.676.487-.742zM6.98-.004c3.465 0 6.279 2.8 6.279 6.257 0 .93-.203 1.812-.568 2.604l2.336 2.036c1.703 1.747.746 3.266.294 3.717-.422.454-1.994 1.415-3.73-.292l-2.06-2.35c-.78.345-1.64.539-2.548.539-3.468 0-6.278-2.802-6.278-6.257 0-3.456 2.807-6.254 6.275-6.254zm5.546 13.517c.293.324 1.126.867 1.88.226.21-.176.634-1.068-.227-1.873l-2.162-1.88a6.269 6.269 0 01-1.363 1.34zM6.98 11.201c2.742 0 4.966-2.216 4.966-4.948S9.722 1.305 6.98 1.305 2.015 3.521 2.015 6.253s2.22 4.948 4.965 4.948z"/></svg><svg viewBox="0 0 52 54" id="support" xmlns="http://www.w3.org/2000/svg"><path fill="#a3bbc8" d="M41.984 33.594c5.41 0 9.797 4.393 9.797 9.812 0 5.42-4.386 9.813-9.797 9.813-5.41 0-9.797-4.394-9.797-9.813 0-5.42 4.387-9.812 9.797-9.812z" opacity=".34"/><path fill="#a3bbc8" d="M50.02 24.65c0 13.54-11.017 24.556-24.557 24.556A24.349 24.349 0 0110.735 44.3a.937.937 0 111.125-1.5 22.487 22.487 0 0013.603 4.53c12.506 0 22.681-10.174 22.681-22.68 0-4.254-1.184-8.399-3.424-11.988a.938.938 0 011.592-.993 24.495 24.495 0 013.707 12.98zm-25.801 9.896c0 .517-.42.938-.938.938h-9.813a.937.937 0 01-.663-1.601l6.344-6.343c2.06-2.06 3.195-4.8 3.195-7.714 0-2.189-1.78-3.97-3.97-3.97a3.973 3.973 0 00-3.968 3.97.937.937 0 11-1.875 0 5.851 5.851 0 015.844-5.844 5.851 5.851 0 015.844 5.844 12.7 12.7 0 01-3.744 9.039l-4.743 4.743h7.55c.517 0 .937.42.937.938zm15.04-6.438c0 .517-.42.938-.938.938h-2.6v5.5a.938.938 0 01-1.876 0v-5.5h-6.938a.937.937 0 01-.805-1.419l7.875-13.188a.938.938 0 011.742.472l.001.008v7.61a.937.937 0 11-1.875 0v-4.21l-5.286 8.851h5.286v-1.516a.938.938 0 011.875 0v1.516h2.601c.518 0 .938.42.938.938zm4.488-19.51a.938.938 0 01-.915.96l-4.06.096h-.023a.937.937 0 01-.022-1.874l1.843-.043a22.76 22.76 0 00-15.107-5.768c-12.506 0-22.68 10.175-22.68 22.681 0 6.14 2.414 11.891 6.798 16.193a.937.937 0 11-1.312 1.338C3.522 37.525.907 31.298.907 24.65.907 11.11 11.923.094 25.463.094c3.485 0 6.853.715 10.01 2.126a24.405 24.405 0 016.345 4.112l-.042-1.749a.938.938 0 011.875-.045z"/></svg><svg viewBox="0 0 20 21" id="use-nav-menu" xmlns="http://www.w3.org/2000/svg"><path d="M2.146 4.88A2.144 2.144 0 010 2.736C0 1.548.96.589 2.146.589c1.187 0 2.146.959 2.146 2.146 0 1.186-.96 2.146-2.146 2.146zm0 7.87A2.145 2.145 0 010 10.603c0-1.186.96-2.145 2.146-2.145a2.145 2.145 0 110 4.292zm0 7.868A2.144 2.144 0 010 18.472c0-1.187.96-2.146 2.146-2.146 1.187 0 2.146.96 2.146 2.146 0 1.187-.96 2.146-2.146 2.146zM10.014 4.88a2.144 2.144 0 01-2.146-2.146c0-1.187.96-2.146 2.146-2.146 1.187 0 2.146.959 2.146 2.146a2.144 2.144 0 01-2.146 2.146zm0 7.869a2.145 2.145 0 01-2.146-2.147c0-1.186.96-2.145 2.146-2.145 1.187 0 2.146.959 2.146 2.145a2.145 2.145 0 01-2.146 2.147zm0 7.868a2.144 2.144 0 01-2.146-2.146c0-1.187.96-2.146 2.146-2.146 1.187 0 2.146.96 2.146 2.146a2.144 2.144 0 01-2.146 2.146zM17.883 4.88a2.144 2.144 0 01-2.146-2.146c0-1.187.96-2.146 2.146-2.146 1.187 0 2.146.959 2.146 2.146 0 1.186-.96 2.146-2.146 2.146zm0 7.869a2.145 2.145 0 01-2.146-2.147c0-1.186.96-2.145 2.146-2.145a2.145 2.145 0 110 4.292zm0 7.868a2.144 2.144 0 01-2.146-2.146c0-1.187.96-2.146 2.146-2.146 1.187 0 2.146.96 2.146 2.146 0 1.187-.96 2.146-2.146 2.146z"/></svg><svg viewBox="0 0 13.687 13.16" id="user" xmlns="http://www.w3.org/2000/svg"><defs><style>.tcls-1{fill:#436372;fill-rule:evenodd}</style></defs><path class="tcls-1" d="M13.257 13.17H.424a.426.426 0 01-.428-.42 6.85 6.85 0 0113.689 0 .426.426 0 01-.428.42zm-12.39-.83h11.947a6.011 6.011 0 00-11.947 0zM6.841 7a3.5 3.5 0 113.636-3.5A3.574 3.574 0 016.841 7zm0-6.17a2.672 2.672 0 102.78 2.67A2.732 2.732 0 006.841.83z"/></svg></svg>