<?xml version="1.0" encoding="UTF-8"?>
<svg xmlns="http://www.w3.org/2000/svg" xmlns:xlink="http://www.w3.org/1999/xlink" width="8" height="10" viewBox="0 0 8 10" version="1.1">
<g id="surface1">
<path style=" stroke:none;fill-rule:nonzero;fill:rgb(0%,0%,0%);fill-opacity:1;" d="M 2.644531 5.625 L 1.929688 5.625 C 1.8125 5.625 1.714844 5.519531 1.714844 5.390625 L 1.714844 4.609375 C 1.714844 4.480469 1.8125 4.375 1.929688 4.375 L 2.644531 4.375 C 2.761719 4.375 2.855469 4.480469 2.855469 4.609375 L 2.855469 5.390625 C 2.855469 5.519531 2.761719 5.625 2.644531 5.625 Z M 4.570312 5.390625 L 4.570312 4.609375 C 4.570312 4.480469 4.476562 4.375 4.355469 4.375 L 3.644531 4.375 C 3.523438 4.375 3.429688 4.480469 3.429688 4.609375 L 3.429688 5.390625 C 3.429688 5.519531 3.523438 5.625 3.644531 5.625 L 4.355469 5.625 C 4.476562 5.625 4.570312 5.519531 4.570312 5.390625 Z M 6.285156 5.390625 L 6.285156 4.609375 C 6.285156 4.480469 6.1875 4.375 6.070312 4.375 L 5.355469 4.375 C 5.238281 4.375 5.144531 4.480469 5.144531 4.609375 L 5.144531 5.390625 C 5.144531 5.519531 5.238281 5.625 5.355469 5.625 L 6.070312 5.625 C 6.1875 5.625 6.285156 5.519531 6.285156 5.390625 Z M 4.570312 7.265625 L 4.570312 6.484375 C 4.570312 6.355469 4.476562 6.25 4.355469 6.25 L 3.644531 6.25 C 3.523438 6.25 3.429688 6.355469 3.429688 6.484375 L 3.429688 7.265625 C 3.429688 7.394531 3.523438 7.5 3.644531 7.5 L 4.355469 7.5 C 4.476562 7.5 4.570312 7.394531 4.570312 7.265625 Z M 2.855469 7.265625 L 2.855469 6.484375 C 2.855469 6.355469 2.761719 6.25 2.644531 6.25 L 1.929688 6.25 C 1.8125 6.25 1.714844 6.355469 1.714844 6.484375 L 1.714844 7.265625 C 1.714844 7.394531 1.8125 7.5 1.929688 7.5 L 2.644531 7.5 C 2.761719 7.5 2.855469 7.394531 2.855469 7.265625 Z M 6.285156 7.265625 L 6.285156 6.484375 C 6.285156 6.355469 6.1875 6.25 6.070312 6.25 L 5.355469 6.25 C 5.238281 6.25 5.144531 6.355469 5.144531 6.484375 L 5.144531 7.265625 C 5.144531 7.394531 5.238281 7.5 5.355469 7.5 L 6.070312 7.5 C 6.1875 7.5 6.285156 7.394531 6.285156 7.265625 Z M 8 2.1875 L 8 9.0625 C 8 9.578125 7.617188 10 7.144531 10 L 0.855469 10 C 0.382812 10 0 9.578125 0 9.0625 L 0 2.1875 C 0 1.671875 0.382812 1.25 0.855469 1.25 L 1.714844 1.25 L 1.714844 0.234375 C 1.714844 0.105469 1.8125 0 1.929688 0 L 2.644531 0 C 2.761719 0 2.855469 0.105469 2.855469 0.234375 L 2.855469 1.25 L 5.144531 1.25 L 5.144531 0.234375 C 5.144531 0.105469 5.238281 0 5.355469 0 L 6.070312 0 C 6.1875 0 6.285156 0.105469 6.285156 0.234375 L 6.285156 1.25 L 7.144531 1.25 C 7.617188 1.25 8 1.671875 8 2.1875 Z M 7.144531 8.945312 L 7.144531 3.125 L 0.855469 3.125 L 0.855469 8.945312 C 0.855469 9.007812 0.90625 9.0625 0.964844 9.0625 L 7.035156 9.0625 C 7.09375 9.0625 7.144531 9.007812 7.144531 8.945312 Z M 7.144531 8.945312 "/>
</g>
</svg>
