<?xml version="1.0" encoding="UTF-8"?>
<svg xmlns="http://www.w3.org/2000/svg" xmlns:xlink="http://www.w3.org/1999/xlink" width="35pt" height="32pt" viewBox="0 0 35 32" version="1.1">
<g id="surface1">
<path style=" stroke:none;fill-rule:nonzero;fill:rgb(0%,0%,0%);fill-opacity:1;" d="M 1.25 8.25 L 33.75 8.25 C 34.441406 8.25 35 7.800781 35 7.25 L 35 4.75 C 35 4.199219 34.441406 3.75 33.75 3.75 L 1.25 3.75 C 0.558594 3.75 0 4.199219 0 4.75 L 0 7.25 C 0 7.800781 0.558594 8.25 1.25 8.25 Z M 1.25 18.25 L 33.75 18.25 C 34.441406 18.25 35 17.800781 35 17.25 L 35 14.75 C 35 14.199219 34.441406 13.75 33.75 13.75 L 1.25 13.75 C 0.558594 13.75 0 14.199219 0 14.75 L 0 17.25 C 0 17.800781 0.558594 18.25 1.25 18.25 Z M 1.25 28.25 L 33.75 28.25 C 34.441406 28.25 35 27.800781 35 27.25 L 35 24.75 C 35 24.199219 34.441406 23.75 33.75 23.75 L 1.25 23.75 C 0.558594 23.75 0 24.199219 0 24.75 L 0 27.25 C 0 27.800781 0.558594 28.25 1.25 28.25 Z M 1.25 28.25 "/>
</g>
</svg>
